<?xml version="1.0" standalone="no"?><!DOCTYPE svg PUBLIC "-//W3C//DTD SVG 1.1//EN" "http://www.w3.org/Graphics/SVG/1.1/DTD/svg11.dtd"><svg t="1541496174081" class="icon" style="" viewBox="0 0 1024 1024" version="1.1" xmlns="http://www.w3.org/2000/svg" p-id="3003" xmlns:xlink="http://www.w3.org/1999/xlink" width="200" height="200"><defs><style type="text/css"></style></defs><path d="M827.930908 782.018376h-607.776553c-35.37523 0-63.976479-28.60125-63.976479-63.97648v-127.952958c0-3.010658 2.634326-5.644983 5.644983-5.644984H886.262404c3.010658 0 5.644983 2.634326 5.644983 5.644984v127.952958c0 35.37523-28.60125 63.976479-63.976479 63.97648z m-660.463065-186.284455V718.041896c0 28.977582 23.708931 52.686512 52.686512 52.686513H827.930908c28.977582 0 52.686512-23.708931 52.686512-52.686513v-122.307975h-713.149577z" p-id="3004"></path><path d="M886.262404 591.970599H161.822859c-2.257993 0-4.139655-1.128997-4.892319-3.010658-1.128997-1.881661-0.752664-4.139655 0.376332-5.644983l134.726939-205.477398c13.171628-19.945608 35.37523-31.98824 59.460493-31.98824h345.096655c24.085263 0 46.288864 12.042631 59.460493 31.98824l134.726938 205.477398c1.128997 1.881661 1.128997 3.763322 0.376333 5.644983-0.752664 1.881661-2.634326 3.010658-4.892319 3.010658z m-713.902242-11.289967H875.725101l-129.081955-196.821757c-11.289967-16.93495-29.730246-27.095921-50.052187-27.09592h-345.096655c-20.32194 0-38.76222 10.16097-50.052187 27.09592l-129.081955 196.821757zM462.888644 682.290334h-248.379272c-3.010658 0-5.644983-2.634326-5.644984-5.644983s2.634326-5.644983 5.644984-5.644983h248.379272c3.010658 0 5.644983 2.634326 5.644983 5.644983s-2.634326 5.644983-5.644983 5.644983zM556.971702 682.290334h-73.384785c-3.010658 0-5.644983-2.634326-5.644984-5.644983s2.634326-5.644983 5.644984-5.644983H556.971702c3.010658 0 5.644983 2.634326 5.644983 5.644983s-2.634326 5.644983-5.644983 5.644983z" p-id="3005"></path><path d="M409.073135 354.504961c-3.010658 0-5.644983-2.634326-5.644984-5.644983v-210.746049c0-3.010658 2.634326-5.644983 5.644984-5.644984s5.644983 2.634326 5.644983 5.644984v210.746049c0 3.010658-2.634326 5.644983-5.644983 5.644983zM607.023888 356.762955c-3.010658 0-5.644983-2.634326-5.644983-5.644984v-215.638368c0-3.010658 2.634326-5.644983 5.644983-5.644983s5.644983 2.634326 5.644984 5.644983v215.638368c0 3.010658-2.257993 5.644983-5.644984 5.644984z" p-id="3006"></path></svg>